<svg xmlns="http://www.w3.org/2000/svg" xmlns:xlink="http://www.w3.org/1999/xlink" version="1.1" width="1000" height="1000" viewBox="0 0 1000 1000" xml:space="preserve">
<desc>Created with Fabric.js 3.5.0</desc>
<defs>
</defs>
<rect x="0" y="0" width="100%" height="100%" fill="#ffffff"/>
<g transform="matrix(0.0736 0 0 0.0835 44.164 49.0044)" id="900745">
<g style="" vector-effect="non-scaling-stroke">
		<g transform="matrix(1 0 0 1 1 1)" id="Layer_1">
<path style="stroke: none; stroke-width: 1; stroke-dasharray: none; stroke-linecap: butt; stroke-dashoffset: 0; stroke-linejoin: miter; stroke-miterlimit: 4; is-custom-font: none; font-file-url: none; fill: rgb(1,22,77); fill-rule: nonzero; opacity: 1;" transform=" translate(-251, -251)" d="M 275 501 C 183.333359 501 92.16671 501 1.000049 501 C 1.000033 334.333405 1.000033 167.666794 1.000016 1.000138 C 167.666565 1.000092 334.33313 1.000092 500.999756 1.000046 C 500.999847 167.666519 500.999847 334.333038 500.999939 500.999786 C 425.833344 501 350.666656 501 275 501 M 117.000198 282.992889 C 117.000198 282.992889 117.07608 282.985626 116.706367 282.463257 C 116.135551 282.172394 115.564735 281.881531 114.605019 281.079895 C 110.78894 278.838074 106.308868 277.247101 105.76371 271.008636 C 105.715218 260.979584 105.666725 250.950531 105.743584 240.011871 C 105.770531 237.528564 105.957382 235.034531 105.791878 232.564117 C 105.421967 227.042633 108.027573 223.738281 112.921005 221.489883 C 116.50103 219.844986 119.756897 217.494583 123.825539 215.187637 C 130.283951 211.509003 136.83728 207.984985 143.167953 204.098312 C 147.511124 201.43187 151.36557 201.487778 155.738998 204.110184 C 162.707687 208.288788 169.933701 212.038239 177.023331 215.986328 C 177.023331 215.986328 177.021515 215.961563 177.169449 216.412186 C 177.373886 216.713486 177.652298 216.818451 178.673203 216.683838 C 183.150269 209.10434 187.627335 201.524841 192.270294 193.664459 C 190.219757 192.595169 188.649414 191.776276 186.687363 190.398834 C 183.449799 188.622879 180.212234 186.846909 176.313995 184.811356 C 171.542648 182.243362 166.771317 179.675354 161.23056 176.922775 C 158.484512 176.292847 155.738464 175.662933 152.271225 174.835526 C 148.850571 175.006287 145.429932 175.177048 141.380203 175.341125 C 138.575668 176.541183 135.771118 177.741241 132.249695 179.017075 C 124.991165 183.165421 117.695473 187.250595 110.490685 191.490265 C 107.177635 193.439865 104.042809 195.692322 100.900696 197.844833 C 100.900696 197.844833 100.914673 197.763535 100.197243 197.485458 C 99.745697 197.732407 99.294151 197.97937 98.213692 198.412003 C 90.401787 203.112564 84.000046 209.04953 80.620049 218.628265 C 80.031013 223.095108 79.441971 227.561935 78.631409 232.798248 C 78.722641 233.848389 78.813873 234.898529 78.719215 236.876663 C 78.747223 249.476425 78.530472 262.082886 78.876381 274.67392 C 79.183876 285.86673 84.667374 294.404968 94.327942 301.062653 C 98.896744 303.677612 103.465546 306.292572 108.521667 309.383514 C 112.079262 311.470123 115.580414 313.661255 119.207275 315.619568 C 125.096001 318.799286 131.067047 321.826569 137.569 325.431183 C 141.002716 325.980072 144.436447 326.528992 148.287476 327.355286 C 148.924072 327.271545 149.560684 327.187836 150.892761 327.273804 C 151.5961 327.173706 152.299438 327.073578 153.832428 327.115356 C 158.891174 325.288849 163.949905 323.462341 169.420822 321.563141 C 169.673325 321.421417 169.860291 321.219147 170.559647 320.88504 C 170.823074 320.611938 171.086517 320.338867 172.035248 320.021454 C 178.112427 316.380646 184.189621 312.739807 190.956192 309.009216 C 197.068588 305.501434 203.180984 301.993683 209.779007 298.207245 C 204.249207 289.786377 199.079651 281.914062 193.760559 273.368866 C 190.888306 268.940399 188.016037 264.511932 184.888657 259.690094 C 183.333084 260.885986 182.079773 261.849487 180.181534 263.020111 C 179.148758 263.803497 178.115967 264.586884 176.917374 265.496033 C 179.189728 268.875336 181.314453 272.035126 183.733429 275.857819 C 187.623596 282.251129 191.513748 288.64447 194.859634 295.523163 C 187.893631 299.677979 180.927628 303.832794 173.261536 308.088867 C 170.677551 309.572937 168.01416 310.935394 165.523331 312.562134 C 154.820175 319.552124 144.291504 319.463837 133.407288 312.681 C 124.850624 307.348694 115.896873 302.653534 106.726257 297.145996 C 98.59507 293.268524 91.963989 287.920471 88.99839 278.166382 C 88.626045 271.115631 88.253693 264.064911 88.055077 256.089478 C 87.996948 249.3974 87.93882 242.705322 88.054916 235.127487 C 88.898468 229.789703 89.74202 224.451904 90.989029 218.625107 C 93.667351 215.547333 95.988998 212.028427 99.113335 209.502289 C 103.113647 206.267929 107.760475 203.83316 112.843193 200.991165 C 118.2248 197.915421 123.606407 194.839676 129.649323 191.599045 C 131.369064 190.614639 133.102005 189.652512 134.806351 188.642105 C 143.561111 183.45192 152.582428 182.730408 161.709305 187.424438 C 166.696976 189.989624 171.496033 192.936981 176.265472 195.896744 C 177.113464 196.422958 177.398514 197.856354 177.341217 199.210205 C 176.576065 200.647797 175.810928 202.085388 174.297455 203.413651 C 168.816925 200.312225 163.350235 197.18605 157.8517 194.116898 C 153.068787 191.447189 148.113083 191.151108 142.352905 193.336151 C 131.873978 199.50444 121.395042 205.672729 110.212502 211.968979 C 99.901375 216.192978 94.750549 223.580429 96.006042 234.972382 C 96.223999 236.950089 96.125977 238.962616 96.038277 241.894501 C 96.111687 249.277725 96.185097 256.66095 96.160408 264.917328 C 96.180382 267.260284 96.200356 269.603241 96.106331 272.738098 C 96.641594 281.376526 102.151001 286.037231 109.902527 289.804321 C 119.964569 295.634857 130.027954 301.463074 140.088058 307.296936 C 144.786789 310.021759 150.023132 311.406342 154.865921 308.914856 C 163.528763 304.458008 171.773331 299.18811 180.346115 293.483856 C 177.565384 288.991455 174.784653 284.499084 171.856461 279.316406 C 170.204803 276.70285 168.553162 274.089294 166.751617 271.238556 C 163.843597 272.896973 161.097 274.094421 158.780746 275.8573 C 153.106262 280.176086 147.462692 281.996582 140.864777 276.329987 C 134.969955 272.864532 129.075134 269.399078 123.159805 265.020752 C 123.091721 261.347382 123.023643 257.674011 123.12281 253.104004 C 123.066017 250.06778 123.009216 247.03157 123.12693 243.129257 C 123.138222 240.776245 123.149521 238.423233 123.752495 235.808929 C 125.165016 234.88945 126.577545 233.969955 128.578003 232.986526 C 129.025467 232.63533 129.472931 232.284119 129.972977 232.006729 C 129.972977 232.006729 129.941391 231.922684 130.508118 231.918701 C 131.132263 231.50444 131.756409 231.090179 132.398849 230.647278 C 132.398849 230.647278 132.417038 230.679276 133.077133 230.386765 C 137.499725 227.876404 142.007233 225.501221 146.309357 222.799072 C 148.484802 221.432693 150.081421 221.189896 152.392609 222.680389 C 157.458817 225.947617 162.782593 228.81543 168.656509 232.093643 C 174.073776 235.231033 179.491043 238.368439 185.506195 241.852097 C 188.206192 236.652557 190.692734 231.864059 193.806885 226.835938 C 198.835358 218.795517 203.863831 210.755096 209.080551 202.413651 C 206.933212 201.383087 205.474106 200.682831 203.569824 199.460587 C 202.577927 198.906845 201.586044 198.353088 200.254715 197.609848 C 195.440033 205.840591 190.714661 213.91864 185.425003 222.365662 C 184.233643 224.30101 183.042282 226.236374 181.823227 228.216751 C 178.180038 226.310867 174.863113 224.575668 171.100388 222.281036 C 165.832794 219.21553 160.77179 215.670502 155.21492 213.276352 C 152.202591 211.978485 147.867096 211.477417 144.97081 212.667297 C 139.289154 215.001465 134.196655 218.769745 128.165558 222.025024 C 125.782791 223.45723 123.400017 224.88945 120.388062 226.502914 C 118.297371 229.330032 116.20668 232.157166 113.856903 235.749329 C 113.863075 236.814957 113.869247 237.8806 113.638969 239.427246 C 113.726402 240.29718 113.813835 241.167114 113.671959 242.945084 C 113.755409 249.625137 113.83886 256.305206 113.677429 263.629822 C 114.760666 266.759735 115.843895 269.889679 117.240532 273.617615 C 119.182961 274.733856 121.125381 275.850067 123.508476 277.461334 C 125.681252 278.635284 127.854019 279.809235 130.437424 281.520905 C 133.274399 283.035309 136.111389 284.549713 139.306213 286.641754 C 141.539001 287.736053 143.77179 288.830322 146.619812 290.38739 C 153.048553 292.263336 157.185425 287.683838 162.699707 284.947845 C 164.214676 286.944519 165.72963 288.941223 166.646103 291.323486 C 163.748795 293.169128 160.851501 295.014771 157.241501 297.062103 C 151.434097 301.247528 145.950958 300.399567 140.490662 296.228668 C 138.406006 294.636261 135.99559 293.44165 133.651459 292.223999 C 129.481445 290.057953 125.248795 288.012482 121.005257 285.991791 C 121.005257 285.991791 121.067947 285.936066 121.109619 285.233765 C 120.078575 284.799255 119.047531 284.364716 118.001724 283.991913 C 118.001724 283.991913 118.064568 283.982819 118.029236 283.400116 C 117.684006 283.239075 117.338776 283.078033 117.000198 282.992889 M 254.094452 277.29303 C 249.833176 279.372162 252.724091 283.119965 252.253738 286.028259 C 251.951248 287.898651 253.152451 290.012207 253.679688 292.016785 C 254.377487 290.153442 255.073105 288.289307 255.774826 286.42746 C 255.92337 286.033356 256.094238 285.647675 256.252716 285.263275 C 259.713318 286.570984 259.227692 293.003418 264.876343 291.745178 C 264.876343 287.647491 264.998993 284.004272 264.798828 280.378876 C 264.741516 279.340668 263.749969 278.354034 263.186768 277.34375 C 262.543488 278.278564 261.611603 279.13443 261.328796 280.167908 C 260.962433 281.506622 261.113586 282.986969 261.009247 285.053558 C 258.672455 282.160767 256.758514 279.791412 254.094452 277.29303 M 366.086914 282.221832 C 365.974243 283.05603 365.861572 283.890228 365.715698 284.970337 C 362.361969 282.651794 362.457367 277.336456 357.533539 277.351471 C 355.930664 287.544403 356.60907 291.415161 360.026428 291.610596 C 360.203766 289.417603 360.381042 287.224731 360.568542 284.905914 C 364.463501 286.305481 363.867249 292.768433 369.45932 291.771698 C 369.45932 288.008942 369.622803 284.677734 369.380524 281.376312 C 369.280823 280.017883 368.307861 278.723541 367.732147 277.400024 C 367.183929 278.741058 366.635742 280.082062 366.086914 282.221832 M 384.629395 290.204865 C 385.847504 290.911011 387.065643 291.617126 388.978149 292.725769 C 388.978149 287.642242 389.074005 283.669556 388.897278 279.709015 C 388.861938 278.91626 387.787628 278.1698 387.192383 277.402008 C 386.707245 278.132172 385.944183 278.810699 385.796783 279.603638 C 385.51828 281.10202 385.593781 282.666229 385.522156 284.203064 C 383.133484 282.471313 381.846893 280.413055 380.316345 278.555847 C 379.788544 277.915436 378.54364 277.353088 377.828766 277.537933 C 377.22995 277.69281 376.58548 278.973053 376.551025 279.780121 C 376.409668 283.092041 376.37915 286.420471 376.578827 289.726471 C 376.626312 290.513336 377.72113 291.237 378.334198 291.989746 C 378.856262 291.152649 379.692719 290.364105 379.831238 289.467712 C 380.077332 287.875427 379.90033 286.217804 379.90033 284.587494 C 380.245697 284.590637 380.591034 284.593811 380.936401 284.596954 C 382.010773 286.262177 383.085175 287.927429 384.629395 290.204865 M 349.950531 283.75296 C 349.344482 282.410614 349.019867 280.813171 348.078613 279.774658 C 345.441437 276.86496 341.738434 275.793335 338.701385 278.157959 C 336.577209 279.811859 334.813568 283.12793 334.651489 285.808258 C 334.434418 289.397491 337.231293 291.731201 341.057739 292.171936 C 346.118286 292.754791 348.985077 290.30011 349.950531 283.75296 M 238.301422 277.103699 C 232.132889 277.909515 229.335052 280.865875 229.986435 285.889832 C 230.545609 290.202606 234.41333 292.858856 239.13063 292.129883 C 242.687012 291.580292 244.842972 289.467773 245.3013 285.938843 C 245.915833 281.207001 243.564346 278.3927 238.301422 277.103699 M 308.31955 286.03653 C 307.326721 283.554657 306.961517 280.420105 305.205719 278.731628 C 301.915161 275.567261 296.337891 276.913269 293.971741 280.754669 C 291.76358 284.339539 292.910309 289.07135 296.504486 291.205597 C 300.922302 293.828918 305.567871 292.055634 308.31955 286.03653 M 406.453583 278.45575 C 403.133209 277.952637 399.812836 277.449524 396.489868 276.946014 C 396.489868 282.749054 396.489868 287.303558 396.489868 291.621918 C 400.066711 291.621918 403.243225 291.621918 406.419708 291.621918 C 406.519531 291.127655 406.619324 290.633392 406.719147 290.139099 C 404.484955 289.592651 402.250793 289.046173 400.016602 288.499695 C 399.853851 288.144104 399.691071 287.788513 399.52832 287.432953 C 401.29071 286.655609 403.053131 285.878296 405.052185 284.996582 C 403.126953 283.601593 401.526581 282.441986 399.926178 281.28241 C 402.005402 280.732361 404.08609 280.187592 406.160187 279.618835 C 406.282288 279.585358 406.351379 279.358368 406.453583 278.45575 M 222.598541 288.466187 C 221.462769 288.706451 220.337479 289.058319 219.189285 289.165985 C 215.828659 289.481232 213.480789 288.234619 213.639511 284.540009 C 213.797287 280.867615 216.350266 279.902161 219.586334 280.211761 C 220.663651 280.314819 221.723679 280.598511 223.206039 280.877686 C 222.870636 279.682526 222.9039 278.625793 222.408173 278.22757 C 219.442703 275.845459 213.408966 277.135986 211.290131 280.485779 C 208.934814 284.209473 210.155228 289.327576 213.879913 291.346436 C 217.6409 293.38504 221.836578 292.302765 222.598541 288.466187 M 322.642792 292.270294 C 324.957214 291.981689 327.913879 292.534576 327.981689 289.733704 C 324.533142 288.881439 321.670898 288.577972 319.282959 287.351227 C 318.512054 286.95517 318.35144 282.984833 319.005463 282.622192 C 321.581421 281.193787 324.592712 280.550507 327.761017 279.511383 C 327.06662 276.562592 324.037018 276.862579 321.431824 277.242401 C 317.319611 277.841827 314.917633 280.363464 314.964691 284.714111 C 315.013824 289.253296 317.352875 291.77124 322.642792 292.270294 M 417.4729 277.676514 C 413.036285 279.352753 412.137268 282.857513 413.010345 286.963959 C 413.766815 290.522186 416.404938 292.218414 419.915283 292.177429 C 422.291351 292.149689 425.469116 293.003601 425.844116 288.836334 C 422.05307 288.500305 416.306519 291.483643 416.215332 284.804169 C 416.127289 278.354492 421.617126 280.410309 425.600647 280.803101 C 424.049469 276.97757 423.823486 276.882843 417.4729 277.676514 M 281.020386 282.450562 C 280.44989 283.697388 279.879425 284.944183 279.265564 286.285828 C 276.218964 283.710876 277.379974 278.203491 272.537415 277.708801 C 273.493164 282.143188 275.019409 286.128479 276.693817 290.050568 C 277.864441 292.79245 279.802673 293.194214 281.15744 290.447937 C 283.145325 286.418152 284.592163 282.12149 286.269562 277.938538 C 285.656586 277.585358 285.043579 277.232208 284.430603 276.879059 C 283.372925 278.494202 282.315247 280.109344 281.020386 282.450562 M 443.772736 279.317474 C 441.577881 276.421326 434.724945 276.279022 431.779663 279.349182 C 433.280823 279.917297 434.648315 280.434814 436.083405 280.977905 C 436.083405 284.023041 435.955963 286.832489 436.161011 289.617432 C 436.222534 290.453003 437.211182 291.220306 437.775116 292.01889 C 438.405548 291.272675 439.464935 290.587036 439.580536 289.768158 C 439.854584 287.82666 439.858551 285.802612 439.645905 283.847382 C 439.342377 281.056061 440.557953 279.921143 443.772736 279.317474 z" stroke-linecap="round"/>
</g>
</g>
</svg>